<?xml version="1.0" encoding="utf-8"?>
<!-- Generator: Adobe Illustrator 25.0.1, SVG Export Plug-In . SVG Version: 6.00 Build 0)  -->
<svg version="1.1" id="Capa_1" xmlns="http://www.w3.org/2000/svg" xmlns:xlink="http://www.w3.org/1999/xlink" x="0px" y="0px"
	 viewBox="0 0 1587.8 1587.8" style="enable-background:new 0 0 1587.8 1587.8;" xml:space="preserve">
<style type="text/css">
	.st0{fill:#3C5996;}
	.st1{fill:#FFFFFF;}
</style>
<g id="Grupo_2182">
	<path id="Trazado_482" class="st0" d="M793.9,0c438.5,0,793.9,355.4,793.9,793.9c0,438.5-355.4,793.9-793.9,793.9S0,1232.3,0,793.9
		S355.4,0,793.9,0"/>
	<path id="Trazado_483" class="st1" d="M993.5,825H851.8v519H637.2V825H535.1V642.6h102.1v-118c0-84.4,40.1-216.5,216.5-216.5
		l159,0.7v177H897.4c-24.2-1.1-44.7,17.5-45.9,41.7c-0.1,2.7,0,5.3,0.4,8v107.3h160.4L993.5,825z"/>
</g>
</svg>
