<?xml version="1.0" encoding="utf-8"?>
<!-- Generator: Adobe Illustrator 25.0.1, SVG Export Plug-In . SVG Version: 6.00 Build 0)  -->
<svg version="1.1" id="Capa_1" xmlns="http://www.w3.org/2000/svg" xmlns:xlink="http://www.w3.org/1999/xlink" x="0px" y="0px"
	 viewBox="0 0 1587.7 1587.8" style="enable-background:new 0 0 1587.7 1587.8;" xml:space="preserve">
<style type="text/css">
	.st0{fill:#F9B906;}
	.st1{fill:#538CF6;}
	.st2{fill:#2CB246;}
	.st3{fill:#EE4336;}
</style>
<path id="Trazado_478" class="st0" d="M351.8,959.6l-55.3,206.1l-202,4.4c-124-231-126.2-508.2-5.8-741.1l0,0l179.8,33l78.7,178.7
	c-35.5,103.6-33.9,216.3,4.4,318.9"/>
<path id="Trazado_479" class="st1" d="M1573.7,645.7c54.9,288.5-54,583.7-283,767.4l0,0l-226.5-11.5l-32.1-200.1
	c93.5-54.8,165.4-140.1,203.6-241.6H811.3v-314h762.5L1573.7,645.7z"/>
<path id="Trazado_480" class="st2" d="M1290.7,1413L1290.7,1413c-342,274.5-841.8,219.7-1116.3-122.3c-30.2-37.7-57-78-79.9-120.6
	l257.2-210.5c91.6,244.1,363.7,367.8,607.8,276.2c25.1-9.4,49.3-21,72.5-34.5L1290.7,1413z"/>
<path id="Trazado_481" class="st3" d="M1300.3,183l-257.2,210.5c-221.3-137.8-512.4-70.1-650.2,151.1c-18.8,30.2-34.1,62.4-45.7,96
	L88.5,428.9l0,0C290.2,39.5,769.3-112.6,1158.7,89.2C1209.1,115.3,1256.5,146.7,1300.3,183"/>
</svg>
