<svg xmlns="http://www.w3.org/2000/svg" xmlns:xlink="http://www.w3.org/1999/xlink" width="1920" height="5501.339" viewBox="0 0 1920 5501.339">
  <defs>
    <clipPath id="clip-path">
      <rect id="Rectángulo_667" data-name="Rectángulo 667" width="1920" height="5501.339" transform="translate(0 0.001)" fill="none"/>
    </clipPath>
  </defs>
  <g id="Grupo_917" data-name="Grupo 917" transform="translate(0 -0.001)" clip-path="url(#clip-path)">
    <g id="Grupo_2184" data-name="Grupo 2184">
      <path id="Trazado_356" data-name="Trazado 356" d="M1068.565,1455.819h-3.332a.7.7,0,1,1,0-1.392h2.637V1441.7l-5.7-7.451h-8.214v20.176h2.636a.7.7,0,1,1,0,1.392h-3.332a.7.7,0,0,1-.7-.7v-21.568a.7.7,0,0,1,.7-.7h9.253a.7.7,0,0,1,.553.272l6.053,7.911a.694.694,0,0,1,.143.423v13.657a.7.7,0,0,1-.7.7" fill="#1d7b83"/>
      <path id="Trazado_357" data-name="Trazado 357" d="M1053.26,1455.819h-17.1a.7.7,0,0,1,0-1.392h16.406v-25.053h-30.612v25.053h5.566a.7.7,0,0,1,0,1.392h-6.262a.7.7,0,0,1-.7-.7v-26.445a.694.694,0,0,1,.7-.695h32.005a.7.7,0,0,1,.694.695v26.445a.7.7,0,0,1-.694.7" fill="#1d7b83"/>
      <path id="Trazado_358" data-name="Trazado 358" d="M1031.836,1460.138a5.015,5.015,0,1,1,5.016-5.015,5.015,5.015,0,0,1-5.016,5.015m0-8.639a3.623,3.623,0,1,0,3.625,3.624A3.622,3.622,0,0,0,1031.836,1451.5Z" fill="#1d7b83"/>
      <path id="Trazado_359" data-name="Trazado 359" d="M1060.912,1460.138a5.015,5.015,0,1,1,5.016-5.015,5.015,5.015,0,0,1-5.016,5.015m0-8.639a3.623,3.623,0,1,0,3.624,3.624A3.623,3.623,0,0,0,1060.912,1451.5Z" fill="#1d7b83"/>
    </g>
    <path id="Trazado_360" data-name="Trazado 360" d="M1087.8,1666.7c-7.364,0-11.278,4.719-11.278,9.863,0,2.385,1.333,5.361,3.467,6.305.609.274.529-.061,1.052-2.064a.473.473,0,0,0-.114-.467c-3.051-3.529-.595-10.784,6.437-10.784,10.177,0,8.276,14.083,1.771,14.083a2.4,2.4,0,0,1-2.531-2.945c.479-1.94,1.417-4.025,1.417-5.423,0-3.523-5.249-3-5.249,1.668a5.651,5.651,0,0,0,.51,2.416s-1.689,6.823-2,8.1a18.133,18.133,0,0,0,.125,5.952.177.177,0,0,0,.323.082,21.14,21.14,0,0,0,2.78-5.236c.208-.767,1.062-3.878,1.062-3.878a4.641,4.641,0,0,0,3.915,1.867c5.144,0,8.862-4.522,8.862-10.133-.018-5.379-4.621-9.4-10.546-9.4" fill="#1d7b83"/>
    <path id="Trazado_361" data-name="Trazado 361" d="M1165.178,1670.118a13.824,13.824,0,0,1-3.813,1.045,6.582,6.582,0,0,0,2.912-3.658,13.237,13.237,0,0,1-4.2,1.6,6.617,6.617,0,0,0-11.447,4.525,6.821,6.821,0,0,0,.153,1.51,18.732,18.732,0,0,1-13.64-6.923,6.621,6.621,0,0,0,2.033,8.846,6.555,6.555,0,0,1-2.99-.816v.073a6.65,6.65,0,0,0,5.3,6.5,6.622,6.622,0,0,1-1.736.218,5.912,5.912,0,0,1-1.253-.113,6.683,6.683,0,0,0,6.184,4.61,13.3,13.3,0,0,1-8.205,2.822,12.491,12.491,0,0,1-1.584-.09,18.633,18.633,0,0,0,10.152,2.969c12.179,0,18.836-10.088,18.836-18.832,0-.292-.01-.575-.023-.855a13.185,13.185,0,0,0,3.316-3.436" fill="#1d7b83"/>
    <line id="Línea_85" data-name="Línea 85" x2="708.361" transform="translate(1016.82 1593.742)" fill="#1d7b83"/>
    <rect id="Rectángulo_666" data-name="Rectángulo 666" width="708.361" height="0.5" transform="translate(1016.82 1593.493)" fill="#1d7b83"/>
  </g>
</svg>
