<svg xmlns="http://www.w3.org/2000/svg" xmlns:xlink="http://www.w3.org/1999/xlink" width="184.001" height="153.001" viewBox="0 0 184.001 153.001">
  <defs>
    <clipPath id="clip-path">
      <rect id="Rectángulo_840" data-name="Rectángulo 840" width="184.001" height="153.001" transform="translate(1700.361 1267.627)" fill="none"/>
    </clipPath>
  </defs>
  <g id="Grupo_1159" data-name="Grupo 1159" transform="translate(-1700.361 -1267.627)" clip-path="url(#clip-path)">
    <path id="Trazado_493" data-name="Trazado 493" d="M1795.993,1465.467a83.41,83.41,0,0,0,24.841,14.724c-.16-6.817,4.062-12.848,7.9-18.482a275.988,275.988,0,0,0,34.65-70.93c3.209-10,5.869-20.516,4.4-30.913a67.288,67.288,0,0,0-3.864-13.855c-4.874-13.164-11.781-26.646-24.063-33.444-15.287-8.465-35.127-3.944-49.177,6.441s-23.581,25.623-32.77,40.486q-21.4,34.612-42.79,69.222,12.672,4.917,25.35,9.834a5.51,5.51,0,0,0,3.485.531,5.359,5.359,0,0,0,2.174-1.572c25.425-26.245,33.472-65.062,56.3-93.591a18.428,18.428,0,0,1,5.576-5.146c4.083-2.122,9.185-1.164,13.191,1.1,9.72,5.495,14.123,17.61,13.583,28.762s-5.132,21.656-9.648,31.866l-29.246,66.087" fill="#de7c3a"/>
  </g>
</svg>
