<svg xmlns="http://www.w3.org/2000/svg" xmlns:xlink="http://www.w3.org/1999/xlink" width="1920" height="1587.782" viewBox="0 0 1920 1587.782">
  <defs>
    <clipPath id="clip-path">
      <rect id="Rectángulo_839" data-name="Rectángulo 839" width="1920" height="1587.782" transform="translate(0 0.358)" fill="none"/>
    </clipPath>
    <clipPath id="clip-path-2">
      <rect id="Rectángulo_826" data-name="Rectángulo 826" width="216.756" height="22.101" transform="translate(856.894 1016.204)" fill="none"/>
    </clipPath>
    <clipPath id="clip-path-3">
      <rect id="Rectángulo_825" data-name="Rectángulo 825" width="216.756" height="22.099" transform="translate(856.894 1016.205)" fill="none"/>
    </clipPath>
    <clipPath id="clip-path-6">
      <rect id="Rectángulo_829" data-name="Rectángulo 829" width="293.573" height="0.751" transform="translate(648.116 948.628)" fill="none"/>
    </clipPath>
    <clipPath id="clip-path-7">
      <rect id="Rectángulo_828" data-name="Rectángulo 828" width="293.573" height="0.75" transform="translate(648.116 948.628)" fill="none"/>
    </clipPath>
    <clipPath id="clip-path-8">
      <rect id="Rectángulo_831" data-name="Rectángulo 831" width="293.576" height="0.751" transform="translate(989.204 948.628)" fill="none"/>
    </clipPath>
    <clipPath id="clip-path-9">
      <rect id="Rectángulo_830" data-name="Rectángulo 830" width="293.576" height="0.75" transform="translate(989.204 948.628)" fill="none"/>
    </clipPath>
    <clipPath id="clip-path-10">
      <rect id="Rectángulo_834" data-name="Rectángulo 834" width="27.08" height="27.079" transform="translate(1241.45 691.701)" fill="none"/>
    </clipPath>
    <clipPath id="clip-path-11">
      <rect id="Rectángulo_833" data-name="Rectángulo 833" width="27.08" height="27.078" transform="translate(1241.45 691.701)" fill="none"/>
    </clipPath>
    <clipPath id="clip-path-12">
      <rect id="Rectángulo_836" data-name="Rectángulo 836" width="35.48" height="20.697" transform="translate(1237.25 694.892)" fill="none"/>
    </clipPath>
    <clipPath id="clip-path-13">
      <rect id="Rectángulo_835" data-name="Rectángulo 835" width="35.48" height="20.697" transform="translate(1237.25 694.891)" fill="none"/>
    </clipPath>
  </defs>
  <g id="Grupo_1157" data-name="Grupo 1157" transform="translate(0 -0.358)" clip-path="url(#clip-path)">
    <path id="Trazado_478" data-name="Trazado 478" d="M684.272,1115.616l-1.26,4.7-4.606.1a18.134,18.134,0,0,1-.133-16.9h0l4.1.752,1.794,4.076a10.789,10.789,0,0,0,.1,7.273" fill="#f9b906"/>
    <path id="Trazado_479" data-name="Trazado 479" d="M712.136,1108.459a18.1,18.1,0,0,1-6.453,17.5h0l-5.165-.263-.731-4.563a10.786,10.786,0,0,0,4.642-5.509h-9.68v-7.161h17.388Z" fill="#538cf6"/>
    <path id="Trazado_480" data-name="Trazado 480" d="M705.682,1125.955h0a18.107,18.107,0,0,1-27.276-5.538l5.866-4.8a10.765,10.765,0,0,0,15.513,5.512Z" fill="#2cb246"/>
    <path id="Trazado_481" data-name="Trazado 481" d="M705.9,1097.906l-5.864,4.8a10.764,10.764,0,0,0-15.869,5.636l-5.9-4.828h0a18.105,18.105,0,0,1,27.631-5.609" fill="#ee4336"/>
    <g id="Grupo_1136" data-name="Grupo 1136" style="isolation: isolate">
      <g id="Grupo_1135" data-name="Grupo 1135">
        <g id="Grupo_1134" data-name="Grupo 1134" clip-path="url(#clip-path-2)">
          <g id="Grupo_1133" data-name="Grupo 1133">
            <g id="Grupo_1132" data-name="Grupo 1132" clip-path="url(#clip-path-3)">
              <g id="Grupo_1131" data-name="Grupo 1131" style="isolation: isolate">
                <g id="Grupo_1130" data-name="Grupo 1130">
                  <g id="Grupo_1129" data-name="Grupo 1129" clip-path="url(#clip-path-2)">
                    <g id="Grupo_1128" data-name="Grupo 1128">
                      <g id="Grupo_1127" data-name="Grupo 1127" clip-path="url(#clip-path-3)">
                        <text id="Continúa_con_Facebook" data-name="Continúa con Facebook" transform="translate(856.895 1033.485)" fill="#1d7b82" font-size="20" font-family="JosefinSans-SemiBold, Josefin Sans" font-weight="600"><tspan x="0" y="0">Continúa con Facebook</tspan></text>
                      </g>
                    </g>
                  </g>
                </g>
              </g>
            </g>
          </g>
        </g>
      </g>
    </g>
    <rect id="Rectángulo_827" data-name="Rectángulo 827" width="635.997" height="60.13" transform="translate(649.321 997.19)" fill="none" stroke="#1d7b82" stroke-miterlimit="10" stroke-width="0.75"/>
    <g id="Grupo_2182" data-name="Grupo 2182">
      <path id="Trazado_482" data-name="Trazado 482" d="M694.029,1008.857a18.1,18.1,0,1,1-18.1,18.1,18.1,18.1,0,0,1,18.1-18.1" fill="#3c5996"/>
      <path id="Trazado_483" data-name="Trazado 483" d="M698.58,1027.667h-3.23V1039.5h-4.894v-11.833h-2.327v-4.159h2.327v-2.691c0-1.924.914-4.937,4.937-4.937l3.625.015v4.036h-2.63a1,1,0,0,0-1.038,1.134v2.447h3.657Z" fill="#fff"/>
    </g>
    <g id="Grupo_1141" data-name="Grupo 1141" opacity="0.5">
      <g id="Grupo_1140" data-name="Grupo 1140">
        <g id="Grupo_1139" data-name="Grupo 1139" clip-path="url(#clip-path-6)">
          <g id="Grupo_1138" data-name="Grupo 1138">
            <g id="Grupo_1137" data-name="Grupo 1137" clip-path="url(#clip-path-7)">
              <line id="Línea_95" data-name="Línea 95" x2="293.573" transform="translate(648.116 949.003)" fill="none" stroke="#1d7b82" stroke-miterlimit="10" stroke-width="0.75"/>
            </g>
          </g>
        </g>
      </g>
    </g>
    <g id="Grupo_1146" data-name="Grupo 1146" opacity="0.5">
      <g id="Grupo_1145" data-name="Grupo 1145">
        <g id="Grupo_1144" data-name="Grupo 1144" clip-path="url(#clip-path-8)">
          <g id="Grupo_1143" data-name="Grupo 1143">
            <g id="Grupo_1142" data-name="Grupo 1142" clip-path="url(#clip-path-9)">
              <line id="Línea_96" data-name="Línea 96" x2="293.572" transform="translate(989.204 949.003)" fill="none" stroke="#1d7b82" stroke-miterlimit="10" stroke-width="0.75"/>
            </g>
          </g>
        </g>
      </g>
    </g>
    <g id="Grupo_1151" data-name="Grupo 1151" opacity="0.5">
      <g id="Grupo_1150" data-name="Grupo 1150">
        <g id="Grupo_1149" data-name="Grupo 1149" clip-path="url(#clip-path-10)">
          <g id="Grupo_1148" data-name="Grupo 1148">
            <g id="Grupo_1147" data-name="Grupo 1147" clip-path="url(#clip-path-11)">
              <line id="Línea_97" data-name="Línea 97" x2="25.078" y2="25.079" transform="translate(1242.447 692.701)" fill="#1d7b82"/>
              <rect id="Rectángulo_832" data-name="Rectángulo 832" width="1" height="35.466" transform="translate(1242.094 693.054) rotate(-44.999)" fill="#1d7b82"/>
              <path id="Trazado_484" data-name="Trazado 484" d="M1267.525,718.28a.5.5,0,0,1-.354-.146l-25.078-25.079a.5.5,0,1,1,.706-.707l25.08,25.078a.5.5,0,0,1-.354.854" fill="#1d7b82"/>
              <path id="Trazado_485" data-name="Trazado 485" d="M1267.525,718.78a.988.988,0,0,1-.707-.293l-25.078-25.079a1,1,0,0,1,0-1.414,1,1,0,0,1,1.414,0l25.078,25.079a1,1,0,0,1-.707,1.707m0-1v0Z" fill="#1d7b82"/>
            </g>
          </g>
        </g>
      </g>
    </g>
    <g id="Grupo_1156" data-name="Grupo 1156" opacity="0.5">
      <g id="Grupo_1155" data-name="Grupo 1155">
        <g id="Grupo_1154" data-name="Grupo 1154" clip-path="url(#clip-path-12)">
          <g id="Grupo_1153" data-name="Grupo 1153">
            <g id="Grupo_1152" data-name="Grupo 1152" clip-path="url(#clip-path-13)">
              <path id="Trazado_486" data-name="Trazado 486" d="M1272.594,704.821c-.278-.407-6.993-9.929-17.608-9.929-9.107,0-17.225,9.468-17.565,9.871a.74.74,0,0,0,0,.955c.34.4,8.458,9.871,17.565,9.871s17.225-9.467,17.565-9.871a.736.736,0,0,0,.043-.9m-17.608,9.29c-7.3,0-14.244-6.963-16.008-8.87,1.761-1.909,8.7-8.87,16.008-8.87,8.544,0,14.574,6.952,16.047,8.83-1.7,1.846-8.683,8.91-16.047,8.91" fill="#1d7b82"/>
              <path id="Trazado_487" data-name="Trazado 487" d="M1254.986,699.326a5.914,5.914,0,1,0,5.914,5.914,5.92,5.92,0,0,0-5.914-5.914m0,10.349a4.435,4.435,0,1,1,4.436-4.435,4.441,4.441,0,0,1-4.436,4.435" fill="#1d7b82"/>
            </g>
          </g>
        </g>
      </g>
    </g>
    <rect id="Rectángulo_837" data-name="Rectángulo 837" width="639.967" height="47.923" transform="translate(646.248 575.605)" fill="#fff"/>
    <rect id="Rectángulo_838" data-name="Rectángulo 838" width="639.967" height="47.923" transform="translate(646.248 687.193)" fill="#fff"/>
    <path id="Trazado_488" data-name="Trazado 488" d="M-10.576,605.261a126.64,126.64,0,0,0,.584,26.3c.3,2.394.8,5,2.651,6.545,2.134,1.776,5.242,1.495,8,1.207,12.491-1.3,25.534-.669,36.936,4.6a49.338,49.338,0,0,1,27.8,38.492c1.016,8.975-.674,18.518-6.1,25.735-8.818,11.72-24.88,14.787-39.46,16.379-2.226.244-4.645.561-6.214,2.16-1.343,1.369-1.752,3.377-2.054,5.271a117.539,117.539,0,0,0-1.314,24.583c.159,3.065.639,6.506,3.1,8.341,2.439,1.819,5.837,1.324,8.812.685,14.733-3.165,29.356-7.909,41.874-16.3S86.864,728.5,90.513,713.88c2.026-8.117,1.961-16.589,1.879-24.954-.107-11.087-.245-22.337-3.358-32.978-5.4-18.471-19.659-33.642-36.76-42.47s-36.819-11.724-56.042-10.8c-3.017.145-6.927,1.263-6.972,4.283" fill="#de7c3a"/>
    <path id="Trazado_489" data-name="Trazado 489" d="M1946.625,659.225c-12.408-12.421-29.371-20.721-46.928-20.836s-35.383,8.654-44.4,23.718c-4.63,7.733-6.84,16.67-8.255,25.572-1.583,9.961-2.223,20.308.536,30.013,3.972,13.964,14.974,25.435,28.251,31.311s28.574,6.428,42.668,2.95a52.661,52.661,0,0,0,19.025-8.481c10.5-7.853,16.48-20.7,18.175-33.7s-.5-26.216-3.844-38.894c-1.917-7.282-5.516-15.668-12.935-16.955" fill="#1d7b82"/>
    <path id="Trazado_490" data-name="Trazado 490" d="M1645.083,286.664l137.405-42.6-10.65,39.411L1759.057,306.9l-20.242,15.975-31.954,7.455-26.632-4.256s-21.3-10.651-35.146-39.412" fill="#daa453"/>
    <path id="Trazado_491" data-name="Trazado 491" d="M61.505,1301.869c13.066-8.1,26.175-16.232,38.1-25.937,15.519-12.632,28.934-27.854,45.476-39.114a77.927,77.927,0,0,0-35.662-21.809,10.789,10.789,0,0,0-5.661-.48c-1.986.534-3.528,2.071-5.36,3.005-5.613,2.861-12.33-.4-18.627-.125-5.378.231-10.265,3.049-14.836,5.894-7.367,4.584-14.769,9.648-19.464,16.944-7.563,11.751-6.682,27.135-2.692,40.528,2.71,9.09,6.877,18.02,13.812,24.494" fill="#bb7980"/>
    <path id="Trazado_492" data-name="Trazado 492" d="M173.562,79.015c-.717-4.774,1.3-9.492,3.326-13.873A544.832,544.832,0,0,1,211.673,1.463c2.211-3.476,4.59-7.053,8.139-9.153,3.365-1.99,7.4-2.423,11.292-2.809l61.376-6.1c5.018-.5,10.213-.979,14.993.624,8.1,2.716,13.1,10.64,17.426,18.008a4.441,4.441,0,0,1,.892,3.042,4.432,4.432,0,0,1-1.953,2.369L256.4,57.978c-8.49,6.362-16.988,12.73-25.9,18.487-14.318,9.253-29.614,16.876-44.872,24.48,0,0-10.568-11.962-12.064-21.93" fill="#1d7b82"/>
  </g>
</svg>
