<?xml version="1.0" encoding="utf-8"?>
<!-- Generator: Adobe Illustrator 25.0.1, SVG Export Plug-In . SVG Version: 6.00 Build 0)  -->
<svg version="1.1" id="Capa_1" xmlns="http://www.w3.org/2000/svg" xmlns:xlink="http://www.w3.org/1999/xlink" x="0px" y="0px"
	 viewBox="0 0 45 45" style="enable-background:new 0 0 45 45;" xml:space="preserve">
<style type="text/css">
	.st0{fill:#1F7B84;}
</style>
<path class="st0" d="M22.5,41.7c-0.6,0-1.3-0.2-1.7-0.7c-1.8-1.6-3.6-3.1-5.1-4.4c-4-3.2-7.7-6.7-11.2-10.5c-2.8-3-4.4-6.9-4.5-11
	c-0.1-3.5,1.2-7,3.6-9.6c2.3-2.5,5.6-3.9,9-3.9c2.6,0,5.1,0.9,7.1,2.4c1.1,0.9,2.1,1.8,2.9,3c0.8-1.1,1.8-2.1,2.9-3
	c2-1.6,4.5-2.5,7.1-2.4c3.4,0,6.7,1.4,9,3.9c2.4,2.6,3.6,6.1,3.6,9.6c-0.1,4.1-1.7,8-4.5,11c-3.4,3.8-7.2,7.3-11.2,10.5
	c-1.5,1.3-3.3,2.8-5.1,4.4C23.8,41.5,23.1,41.7,22.5,41.7 M12.6,4.4c-2.7,0-5.2,1.1-7.1,3.1c-1.9,2.2-2.9,4.9-2.9,7.8
	c0.1,3.5,1.5,6.8,3.9,9.3c3.3,3.7,7,7.1,10.8,10.2c1.6,1.3,3.3,2.8,5.1,4.4c1.8-1.6,3.6-3.1,5.2-4.4c3.9-3.1,7.5-6.5,10.8-10.2
	c2.4-2.5,3.8-5.8,3.9-9.3c0.1-2.9-1-5.7-2.9-7.8c-1.8-2-4.4-3.1-7.1-3.1c-2,0-3.9,0.7-5.5,1.9c-1.2,1-2.3,2.2-3,3.5
	c-0.5,0.8-1.5,1-2.3,0.6c-0.2-0.1-0.4-0.3-0.6-0.6c-0.8-1.3-1.8-2.5-3-3.5C16.5,5,14.5,4.3,12.6,4.4"/>
</svg>
