<?xml version="1.0" encoding="utf-8"?>
<!-- Generator: Adobe Illustrator 25.0.1, SVG Export Plug-In . SVG Version: 6.00 Build 0)  -->
<svg version="1.1" id="Capa_1" xmlns="http://www.w3.org/2000/svg" xmlns:xlink="http://www.w3.org/1999/xlink" x="0px" y="0px"
	 viewBox="0 0 45 45" style="enable-background:new 0 0 45 45;" xml:space="preserve">
<style type="text/css">
	.st0{fill:#1F7B84;}
</style>
<path class="st0" d="M44.7,8.4c-0.3-0.4-0.7-0.6-1.1-0.6L15.7,6.6c-0.8,0-1.4,0.7-1.4,1.5c0,0.7,0.6,1.3,1.3,1.4l26,1.1l-5.1,16
	H13.7L9.6,4.2C9.5,3.7,9.2,3.3,8.7,3.1L2,0.4C1.2,0.1,0.4,0.5,0.1,1.3C-0.2,2,0.2,2.8,0.9,3.1c0,0,0,0,0,0l6,2.3l4.2,22.8
	c0.1,0.7,0.7,1.2,1.4,1.2h0.7l-1.6,4.4c-0.2,0.6,0.1,1.3,0.7,1.5c0.1,0,0.3,0.1,0.4,0.1h1.1c-1.6,1.8-1.5,4.5,0.3,6.1
	c1.8,1.6,4.5,1.5,6.1-0.3c1.5-1.6,1.5-4.1,0-5.8h9.4c-1.6,1.8-1.5,4.5,0.3,6.1c1.8,1.6,4.5,1.5,6.1-0.3c1.5-1.6,1.5-4.1,0-5.8h1.4
	c0.7,0,1.2-0.5,1.2-1.2c0-0.7-0.5-1.2-1.2-1.2h0H14.5l1.3-3.6h21.8c0.6,0,1.2-0.4,1.4-1l6-18.8C45.1,9.3,45,8.8,44.7,8.4 M17.1,40.3
	c-1.1,0-1.9-0.9-1.9-1.9c0-1.1,0.9-1.9,1.9-1.9c1.1,0,1.9,0.9,1.9,1.9C19,39.4,18.2,40.3,17.1,40.3L17.1,40.3z M33,40.3
	c-1.1,0-1.9-0.9-1.9-1.9c0-1.1,0.9-1.9,1.9-1.9c1.1,0,1.9,0.9,1.9,1.9C34.9,39.4,34,40.3,33,40.3L33,40.3z"/>
</svg>
