<?xml version="1.0" encoding="utf-8"?>
<!-- Generator: Adobe Illustrator 25.0.1, SVG Export Plug-In . SVG Version: 6.00 Build 0)  -->
<svg version="1.1" id="Capa_1" xmlns="http://www.w3.org/2000/svg" xmlns:xlink="http://www.w3.org/1999/xlink" x="0px" y="0px"
	 viewBox="0 0 45 45" style="enable-background:new 0 0 45 45;" xml:space="preserve">
<style type="text/css">
	.st0{fill:#1F7B84;}
</style>
<path class="st0" d="M43.3,41L32.6,29.9c6.5-7.7,5.5-19.2-2.2-25.6C22.7-2.2,11.2-1.2,4.7,6.5C-1.7,14.2-0.7,25.7,7,32.1
	c3.3,2.7,7.4,4.3,11.7,4.3c3.7,0,7.4-1.1,10.4-3.3l10.8,11.2c0.9,1,2.4,1,3.4,0.1C44.2,43.5,44.3,42,43.3,41L43.3,41L43.3,41z
	 M18.7,4.7c7.4,0,13.4,6,13.4,13.4c0,7.4-6,13.4-13.4,13.4c-7.4,0-13.4-6-13.4-13.4C5.2,10.8,11.3,4.7,18.7,4.7"/>
</svg>
