<?xml version="1.0" encoding="utf-8"?>
<!-- Generator: Adobe Illustrator 25.0.1, SVG Export Plug-In . SVG Version: 6.00 Build 0)  -->
<svg version="1.1" id="Capa_1" xmlns="http://www.w3.org/2000/svg" xmlns:xlink="http://www.w3.org/1999/xlink" x="0px" y="0px"
	 viewBox="0 0 45 45" style="enable-background:new 0 0 45 45;" xml:space="preserve">
<style type="text/css">
	.st0{fill:#1F7B84;}
</style>
<path class="st0" d="M38.4,29.1c-2.4-2.4-5.3-4.2-8.6-5.4c5.9-4.1,7.4-12.2,3.4-18.1c-4.1-5.9-12.2-7.4-18.1-3.4
	c-5.9,4.1-7.4,12.2-3.4,18.1c0.9,1.3,2,2.5,3.4,3.4C6.1,26.9,0,35.4,0,45h3.5c0-10.5,8.5-19,19-19c10.5,0,19,8.5,19,19H45
	C45,39,42.6,33.3,38.4,29.1 M22.5,22.5c-5.2,0-9.5-4.2-9.5-9.5c0-5.2,4.2-9.5,9.5-9.5c5.2,0,9.5,4.2,9.5,9.5
	C32,18.3,27.7,22.5,22.5,22.5L22.5,22.5z"/>
</svg>
