<?xml version="1.0" encoding="utf-8"?>
<!-- Generator: Adobe Illustrator 24.0.2, SVG Export Plug-In . SVG Version: 6.00 Build 0)  -->
<svg version="1.1" id="Capa_1" xmlns="http://www.w3.org/2000/svg" xmlns:xlink="http://www.w3.org/1999/xlink" x="0px" y="0px"
	 viewBox="0 0 300 400" style="enable-background:new 0 0 300 400;" xml:space="preserve">
<style type="text/css">
	.st0{fill:#1F7B84;}
	.st1{fill:#DCA652;}
	.st2{fill:#E07C3A;}
	.st3{fill:#BD7981;}
	.st4{fill:#E6B09E;}
	.st5{fill:#688073;}
</style>
<path class="st0" d="M187.2,4.6c-9.8-2.2-24.6-2.6-34.6-1.1c3.5,6.5,1.8,19.1,1.7,26.6c-0.2,15.1-0.8,68.5-0.1,87.6
	c0.4,11.5,2.7,22.9,9.2,32.1c2.9,4.2,6.6,8.8,10.3,12.2c10.9,10.1,28.4,17.6,43,17.7c18.2,0.1,38.8-14.7,46.7-32.1
	c7.9-17.4,9.2-37.1,10.4-56.3c1.9-29.8-0.8-59.5,1.1-89.3c-9.4,1.3-21.5-0.2-30.9,1.1c-1.2,0.2-2.6,0.4-3.5,1.3
	c-0.7,0.7-1.1,1.7-1.2,2.7c-3.5,25.5,3.6,83.1-3.5,122.7c-0.5,2.8-1.1,5.6-2.6,7.9c-2.7,4.2-8.8,8.7-13.6,8.6
	c-11.6-0.2-22.5-4.9-27.4-16c-4.9-11-4-30.9-4.8-43.2c-1.7-26.4,1.1-57.3-0.7-83.7"/>
<path class="st1" d="M92.1,400.3c-1.7-2.1-3.8-5.1-3.5-6.7c0.1-0.4,0.4-0.6,0.7-0.8c6.2-3.6,12.4-7.2,18.7-10.8
	c0.2-0.1,0.4-0.2,0.7,0c0.4,0.2,0.7,0.7,1,1.2c1.1,1.7,2.2,3.3,3.2,5.1c0.1,0.2,0.1,0.3,0.1,0.4C111.5,389.4,98.7,396.5,92.1,400.3"
	/>
<path class="st2" d="M221,397.7c-1.7-2.1-3.8-5.1-3.5-6.7c0.1-0.5,0.4-0.6,0.7-0.8c6.2-3.6,12.4-7.2,18.7-10.8
	c0.2-0.1,0.4-0.2,0.7,0c0.4,0.2,0.7,0.7,1,1.2c1.1,1.7,2.2,3.3,3.2,5.1c0.1,0.2,0.1,0.3,0.1,0.4C240.4,386.8,227.6,393.9,221,397.7"
	/>
<path class="st1" d="M132.4,178.2c1.9-9.2,2.8-16.8,2.8-26.3c0-2.6-0.2-5.4-2-7.3c-2-2.2-5.4-2.3-8.4-2.3
	c-13.5-0.2-33.7-4.4-45.2-11.5c-15.1-9.4-18.4-25.1-18.2-42.8c0.1-9.7,4.6-28,12-34.4c19.1-16.4,33.7-14.9,49.4-14.7
	c2.4,0,5,0,6.9-1.5c1.6-1.3,2.3-3.4,2.9-5.4c2.4-8.5,4-9,4.6-17.8c0.2-3.3,0.2-7-2.2-9.3c-2.4-2.3-6.1-2.2-9.3-1.9
	c-16.1,1.5-38.8,1.9-53.2,9.2c-14.4,7.3-34.4,21.9-40.2,37c-3.2,8.4-4.2,17.4-5.3,26.4c-1.3,11.8-2.6,23.8-0.7,35.6
	c3.4,20.4,16.6,43,33.7,54.7c17.1,11.6,44.2,12.7,64.8,14.2c3.2,0.2,1.1-0.4,1.6-3.7"/>
<path class="st3" d="M45.7,57.1C50.8,46.3,55.9,35.5,61,24.7c0.1-0.2,0.2-0.5,0.1-0.8c-0.1-0.3-0.3-0.4-0.6-0.6L24.4,2.6
	c-1.2-0.7-2.5,0.3-2.2,1.5c0.5,1.9,1.3,3.8,2,5.7c6.3,15.6,12.6,31.3,20.4,46.4C44.8,56.7,45.3,57,45.7,57.1"/>
<path class="st4" d="M61.2,35.3C53,44,44.9,52.7,36.8,61.5c-0.2,0.2-0.4,0.4-0.7,0.4c-0.3,0-0.5-0.2-0.7-0.3L2.6,35.7
	c-1.1-0.8-0.7-2.5,0.6-2.6c2-0.2,4-0.2,6.1-0.2c16.9,0.1,33.7,0.1,50.6,1.7C60.4,34.6,60.9,34.8,61.2,35.3"/>
<path class="st2" d="M114.2,69.4l-0.9-6l-6-4.8l-7-0.3c0,0-13,1.6-12.4,12.7l2.9,8.3l12.4,3.5l5.1-1.6L114.2,69.4z"/>
<path class="st0" d="M111.9,389.1c-2.6,0.7-6.3,1.2-7.5-0.7c-0.4-0.6-0.4-1.2-0.4-1.9c-0.3-13-0.7-26-1-39c0-0.4,0-0.8,0.3-1.1
	c0.3-0.4,1-0.4,1.5-0.5c2-0.2,4-0.3,6-0.3c0.2,0,0.4,0.1,0.4,0.3C111.1,348.8,111.5,375.3,111.9,389.1"/>
<path class="st2" d="M124.5,400.9c1.7-2.1,3.9-5.1,3.4-6.7c-0.1-0.5-0.5-0.7-0.8-0.9c-7-4.1-14-8.1-21-12.2
	c-0.2-0.1-0.4-0.2-0.7-0.1c-0.4,0.2-0.7,0.7-1.1,1.2c-1.1,1.7-2.2,3.3-3.2,5.1c-0.1,0.2-0.1,0.3,0,0.4
	C102.7,388.5,117.1,396.5,124.5,400.9"/>
<path class="st5" d="M240.8,386.3c-2.6,1.1-6.3,1.7-7.6-1.3c-0.4-0.9-0.4-1.9-0.4-2.8c-0.7-19.8-1.3-39.7-2-59.5
	c0-0.6,0-1.2,0.3-1.6c0.3-0.5,1-0.6,1.5-0.7c2-0.2,4-0.4,6-0.4c0.2,0,0.4,0.2,0.4,0.4C239.1,324.8,240.1,365.3,240.8,386.3"/>
<path class="st4" d="M253.4,398.3c1.7-2.1,3.9-5.1,3.4-6.7c-0.1-0.5-0.5-0.7-0.8-0.9c-7-4.1-14-8.1-21-12.2
	c-0.2-0.1-0.4-0.2-0.7-0.1c-0.4,0.2-0.7,0.7-1.1,1.2c-1.1,1.7-2.2,3.3-3.2,5.1c-0.1,0.2-0.1,0.3,0,0.4
	C231.6,385.9,246,394,253.4,398.3"/>
<path class="st3" d="M82.7,192.5c-9.8-2.2-24.6-2.6-34.6-1.1c3.5,6.5,1.8,19.1,1.7,26.6c-0.2,15.1-0.8,68.5-0.1,87.6
	c0.4,11.5,2.7,22.9,9.2,32.1c2.9,4.2,6.6,8.8,10.3,12.2c10.9,10.1,28.4,17.6,43,17.7c18.2,0.1,38.8-14.7,46.7-32.1
	c7.9-17.4,9.2-37.1,10.4-56.3c1.9-29.8-0.8-59.5,1.1-89.3c-9.4,1.3-21.5-0.2-30.9,1.1c-1.2,0.2-2.6,0.4-3.5,1.3
	c-0.7,0.7-1.1,1.7-1.2,2.7c-3.5,25.5,3.6,83.1-3.5,122.7c-0.5,2.8-1.1,5.6-2.6,7.9c-2.7,4.2-8.8,8.7-13.6,8.6
	c-11.6-0.2-22.5-4.9-27.4-16c-4.9-11-4-30.9-4.8-43.2c-1.7-26.4,1.1-57.3-0.7-83.7"/>
<path class="st1" d="M190.7,365.6c-1.9-9.2-2.8-16.8-2.8-26.3c0-2.6,0.2-5.4,2-7.3c2-2.2,5.4-2.3,8.4-2.3
	c13.5-0.2,33.7-4.4,45.2-11.5c15.1-9.3,18.4-25.1,18.2-42.8c-0.1-9.7-4.6-28-12-34.4c-19.1-16.4-33.7-14.9-49.4-14.7
	c-2.4,0-5,0-6.9-1.5c-1.6-1.3-2.3-3.4-2.9-5.4c-2.4-8.5-4-9-4.6-17.8c-0.2-3.3-0.2-7,2.2-9.3c2.4-2.3,6.1-2.2,9.3-1.9
	c16.1,1.5,38.8,1.9,53.2,9.2c14.4,7.3,34.4,21.9,40.2,37c3.2,8.4,4.2,17.4,5.3,26.4c1.3,11.8,2.6,23.9,0.7,35.6
	c-3.4,20.4-16.6,43-33.7,54.7c-17.1,11.6-44.2,12.7-64.8,14.2c-3.2,0.2-1.1-0.4-1.6-3.7"/>
</svg>
