<?xml version="1.0" encoding="utf-8"?>
<!-- Generator: Adobe Illustrator 25.0.1, SVG Export Plug-In . SVG Version: 6.00 Build 0)  -->
<svg version="1.1" id="Capa_1" xmlns="http://www.w3.org/2000/svg" xmlns:xlink="http://www.w3.org/1999/xlink" x="0px" y="0px"
	 viewBox="0 0 1920 2363.1" style="enable-background:new 0 0 1920 2363.1;" xml:space="preserve">
<style type="text/css">
	.st0{fill:#1D7B83;}
</style>
<path id="Trazado_360" class="st0" d="M992.1,0C344.3,0,0,415.1,0,867.6c0,209.8,117.3,471.6,305,554.6
	c53.6,24.1,46.5-5.4,92.5-181.6c4.4-14.5,0.5-30.2-10-41.1C119.1,889.1,335.1,251,953.7,251c895.2,0,728,1238.8,155.8,1238.8
	c-116.2,9.5-218.1-77-227.6-193.2c-1.8-22.1-0.1-44.3,5-65.8c42.1-170.6,124.6-354.1,124.6-477c0-309.9-461.7-263.9-461.7,146.7
	c-0.9,73.3,14.4,145.9,44.9,212.5c0,0-148.6,600.2-175.9,712.5c-25.2,173.9-21.5,350.8,11,523.6c0.8,8.6,8.4,14.8,17,14
	c4.6-0.4,8.8-2.9,11.4-6.8c102.7-141.3,185.1-296.3,244.5-460.6c18.3-67.5,93.4-341.1,93.4-341.1
	c80.6,108.3,209.5,169.8,344.4,164.2c452.5,0,779.5-397.8,779.5-891.3C1918.4,354.2,1513.5,0.5,992.3,0.5"/>
</svg>
