<?xml version="1.0" encoding="utf-8"?>
<!-- Generator: Adobe Illustrator 25.0.1, SVG Export Plug-In . SVG Version: 6.00 Build 0)  -->
<svg version="1.1" id="Capa_1" xmlns="http://www.w3.org/2000/svg" xmlns:xlink="http://www.w3.org/1999/xlink" x="0px" y="0px"
	 viewBox="0 0 723.3 722.1" style="enable-background:new 0 0 723.3 722.1;" xml:space="preserve">
<style type="text/css">
	.st0{fill:#DF7B39;}
</style>
<g id="Grupo_2182" transform="translate(-31 1)">
	<path id="Trazado_350" class="st0" d="M520.7,170.7c0,35,28.4,63.3,63.3,63.3c35,0,63.3-28.4,63.3-63.3c0-35-28.3-63.3-63.3-63.3
		C549,107.4,520.7,135.7,520.7,170.7 M605.1,170.7c0,11.7-9.5,21.1-21.1,21.1c-11.7,0-21.1-9.5-21.1-21.1c0-11.7,9.5-21.1,21.1-21.1
		l0,0C595.7,149.6,605.1,159.1,605.1,170.7"/>
	<path id="Trazado_351" class="st0" d="M748.1,113.5l-107-107c-4-4-9.3-6.2-14.9-6.2H461.5c-5.6,0-11,2.2-14.9,6.2L52.1,401.8
		c-24.7,24.7-24.7,64.8,0,89.6l211.2,211.2c24.8,24.7,64.8,24.7,89.6,0l395.3-395.9c4-4,6.2-9.3,6.2-14.9V128.4
		C754.3,122.9,752.1,117.5,748.1,113.5 M712.1,283L323,672.7c-8.3,8.2-21.6,8.2-29.9,0L81.9,461.5c-8.2-8.2-8.3-21.6,0-29.8
		c0,0,0,0,0,0L470.2,42.6h147.2l94.6,94.6L712.1,283z"/>
</g>
</svg>
