<?xml version="1.0" encoding="utf-8"?>
<!-- Generator: Adobe Illustrator 25.0.1, SVG Export Plug-In . SVG Version: 6.00 Build 0)  -->
<svg version="1.1" id="Capa_1" xmlns="http://www.w3.org/2000/svg" xmlns:xlink="http://www.w3.org/1999/xlink" x="0px" y="0px"
	 viewBox="0 0 634.1 418.7" style="enable-background:new 0 0 634.1 418.7;" xml:space="preserve">
<style type="text/css">
	.st0{fill:#1D7B83;}
</style>
<g id="Grupo_2184">
	<path id="Trazado_356" class="st0" d="M625,362.4h-43.4c-5,0.5-9.5-3.1-10-8.1c-0.5-5,3.1-9.5,8.1-10c0.6-0.1,1.3-0.1,1.9,0h34.3
		V178.6l-74.2-97H434.8v262.7h34.3c5-0.5,9.5,3.1,10,8.1c0.5,5-3.1,9.5-8.1,10c-0.6,0.1-1.3,0.1-1.9,0h-43.4c-5,0-9.1-4.1-9.1-9.1
		V72.5c0-5,4.1-9.1,9.1-9.1h120.5c2.8,0,5.5,1.3,7.2,3.5l78.8,103c1.2,1.6,1.9,3.5,1.9,5.5v177.8C634.1,358.3,630,362.3,625,362.4"
		/>
	<path id="Trazado_357" class="st0" d="M425.7,362.4H203.1c-5-0.5-8.6-5-8.1-10c0.5-4.3,3.8-7.6,8.1-8.1h213.6V18.2H18.2v326.2h72.5
		c5,0.5,8.6,5,8.1,10c-0.5,4.3-3.8,7.6-8.1,8.1H9.1c-5,0-9.1-4.1-9.1-9.1V9c0-5,4-9,9-9c0,0,0.1,0,0.1,0h416.7c5,0,9,4.1,9,9v344.3
		C434.8,358.3,430.8,362.4,425.7,362.4"/>
	<path id="Trazado_358" class="st0" d="M146.8,418.7c-36.1,0-65.3-29.2-65.3-65.3c0-36.1,29.2-65.3,65.3-65.3
		c36.1,0,65.3,29.2,65.3,65.3C212.1,389.4,182.9,418.7,146.8,418.7C146.8,418.7,146.8,418.7,146.8,418.7 M146.8,306.2
		c-26,0-47.2,21.1-47.1,47.2s21.1,47.2,47.2,47.1c26,0,47.1-21.1,47.1-47.2C194,327.3,172.9,306.2,146.8,306.2
		C146.9,306.2,146.8,306.2,146.8,306.2L146.8,306.2z"/>
	<path id="Trazado_359" class="st0" d="M525.4,418.7c-36.1,0-65.3-29.2-65.3-65.3c0-36.1,29.2-65.3,65.3-65.3
		c36.1,0,65.3,29.2,65.3,65.3C590.7,389.4,561.4,418.7,525.4,418.7C525.4,418.7,525.4,418.7,525.4,418.7 M525.4,306.2
		c-26,0-47.2,21.1-47.2,47.2c0,26,21.1,47.2,47.2,47.2c26,0,47.1-21.1,47.2-47.2C572.5,327.3,551.4,306.2,525.4,306.2
		C525.4,306.2,525.4,306.2,525.4,306.2L525.4,306.2z"/>
</g>
</svg>
