<?xml version="1.0" encoding="utf-8"?>
<!-- Generator: Adobe Illustrator 25.0.1, SVG Export Plug-In . SVG Version: 6.00 Build 0)  -->
<svg version="1.1" id="Capa_1" xmlns="http://www.w3.org/2000/svg" xmlns:xlink="http://www.w3.org/1999/xlink" x="0px" y="0px"
	 viewBox="0 0 1920 1559.6" style="enable-background:new 0 0 1920 1559.6;" xml:space="preserve">
<style type="text/css">
	.st0{fill:#1D7B83;}
</style>
<path id="Trazado_361" class="st0" d="M1920,184.8c-72.2,31.5-148.6,52.4-226.8,62.1c82.4-48.9,144-126.3,173.2-217.5
	c-77.2,45.7-161.7,77.9-249.8,95.1c-148.5-158.6-397.6-166.8-556.2-18.3C981,180.7,935.9,284.7,935.9,393.6
	c-0.3,30.2,2.7,60.3,9.1,89.8C628.4,467.9,333.3,318.1,133.9,71.7C28.7,251.5,81.7,482,254.8,597.8c-62.3-1.7-123.3-18.4-177.8-48.5
	v4.3c0.3,187.2,131.9,348.5,315.2,386.5c-33.7,8.9-68.4,13.2-103.2,13c-25,0.4-50-1.8-74.5-6.7c52.2,160,199.5,269.9,367.8,274.1
	c-139.3,108.9-311.1,168-487.9,167.8c-31.5,0.2-62.9-1.6-94.2-5.4c180,115.9,389.7,177.3,603.7,176.6
	c724.3,0,1120.2-599.9,1120.2-1119.9c0-17.4-0.6-34.2-1.4-50.8c77.6-55.5,144.5-124.8,197.2-204.3"/>
</svg>
